<mxfile host="app.diagrams.net" agent="Mozilla/5.0 (Windows NT 10.0; Win64; x64) AppleWebKit/537.36 (KHTML, like Gecko) Chrome/138.0.0.0 Safari/537.36" version="27.1.6">
  <diagram name="Page-1" id="gUCOU38CDdhyQL5NhSwm">
    <mxGraphModel grid="1" page="1" gridSize="10" guides="1" tooltips="1" connect="1" arrows="1" fold="1" pageScale="1" pageWidth="850" pageHeight="1100" math="0" shadow="0">
      <root>
        <mxCell id="0" />
        <mxCell id="1" parent="0" />
        <mxCell id="TGWMUHkCGuM8DVwTMN4Y-30" value="" style="endArrow=none;html=1;rounded=0;strokeWidth=4;" edge="1" parent="1" source="TGWMUHkCGuM8DVwTMN4Y-21" target="TGWMUHkCGuM8DVwTMN4Y-29">
          <mxGeometry width="50" height="50" relative="1" as="geometry">
            <mxPoint x="455" y="360" as="sourcePoint" />
            <mxPoint x="710" y="360" as="targetPoint" />
          </mxGeometry>
        </mxCell>
        <mxCell id="TGWMUHkCGuM8DVwTMN4Y-1" value="" style="endArrow=none;html=1;rounded=0;strokeWidth=4;" edge="1" parent="1" source="TGWMUHkCGuM8DVwTMN4Y-27">
          <mxGeometry width="50" height="50" relative="1" as="geometry">
            <mxPoint x="80" y="360" as="sourcePoint" />
            <mxPoint x="720" y="360" as="targetPoint" />
          </mxGeometry>
        </mxCell>
        <mxCell id="TGWMUHkCGuM8DVwTMN4Y-5" value="" style="endArrow=none;html=1;rounded=0;strokeWidth=4;" edge="1" parent="1" source="TGWMUHkCGuM8DVwTMN4Y-6" target="TGWMUHkCGuM8DVwTMN4Y-4">
          <mxGeometry width="50" height="50" relative="1" as="geometry">
            <mxPoint x="80" y="360" as="sourcePoint" />
            <mxPoint x="720" y="360" as="targetPoint" />
          </mxGeometry>
        </mxCell>
        <mxCell id="TGWMUHkCGuM8DVwTMN4Y-4" value="" style="ellipse;whiteSpace=wrap;html=1;aspect=fixed;strokeWidth=2;" vertex="1" parent="1">
          <mxGeometry x="345" y="350" width="20" height="20" as="geometry" />
        </mxCell>
        <mxCell id="TGWMUHkCGuM8DVwTMN4Y-13" value="" style="endArrow=none;html=1;rounded=0;strokeWidth=4;" edge="1" parent="1" source="TGWMUHkCGuM8DVwTMN4Y-33" target="TGWMUHkCGuM8DVwTMN4Y-8">
          <mxGeometry width="50" height="50" relative="1" as="geometry">
            <mxPoint x="80" y="360" as="sourcePoint" />
            <mxPoint x="350" y="360" as="targetPoint" />
            <Array as="points">
              <mxPoint x="220" y="360" />
            </Array>
          </mxGeometry>
        </mxCell>
        <mxCell id="TGWMUHkCGuM8DVwTMN4Y-8" value="" style="ellipse;whiteSpace=wrap;html=1;aspect=fixed;strokeWidth=2;" vertex="1" parent="1">
          <mxGeometry x="255" y="350" width="20" height="20" as="geometry" />
        </mxCell>
        <mxCell id="TGWMUHkCGuM8DVwTMN4Y-9" value="" style="ellipse;whiteSpace=wrap;html=1;aspect=fixed;strokeWidth=2;fontSize=12;" vertex="1" parent="1">
          <mxGeometry x="225" y="350" width="20" height="20" as="geometry" />
        </mxCell>
        <mxCell id="TGWMUHkCGuM8DVwTMN4Y-10" value="" style="ellipse;whiteSpace=wrap;html=1;aspect=fixed;strokeWidth=2;" vertex="1" parent="1">
          <mxGeometry x="195" y="350" width="20" height="20" as="geometry" />
        </mxCell>
        <mxCell id="TGWMUHkCGuM8DVwTMN4Y-11" value="" style="ellipse;whiteSpace=wrap;html=1;aspect=fixed;strokeWidth=2;" vertex="1" parent="1">
          <mxGeometry x="165" y="350" width="20" height="20" as="geometry" />
        </mxCell>
        <mxCell id="TGWMUHkCGuM8DVwTMN4Y-12" value="" style="ellipse;whiteSpace=wrap;html=1;aspect=fixed;strokeWidth=2;" vertex="1" parent="1">
          <mxGeometry x="135" y="350" width="20" height="20" as="geometry" />
        </mxCell>
        <mxCell id="TGWMUHkCGuM8DVwTMN4Y-14" value="" style="ellipse;whiteSpace=wrap;html=1;aspect=fixed;strokeWidth=2;" vertex="1" parent="1">
          <mxGeometry x="645" y="350" width="20" height="20" as="geometry" />
        </mxCell>
        <mxCell id="TGWMUHkCGuM8DVwTMN4Y-15" value="" style="ellipse;whiteSpace=wrap;html=1;aspect=fixed;strokeWidth=2;" vertex="1" parent="1">
          <mxGeometry x="615" y="350" width="20" height="20" as="geometry" />
        </mxCell>
        <mxCell id="TGWMUHkCGuM8DVwTMN4Y-16" value="" style="ellipse;whiteSpace=wrap;html=1;aspect=fixed;strokeWidth=2;" vertex="1" parent="1">
          <mxGeometry x="585" y="350" width="20" height="20" as="geometry" />
        </mxCell>
        <mxCell id="TGWMUHkCGuM8DVwTMN4Y-17" value="" style="ellipse;whiteSpace=wrap;html=1;aspect=fixed;strokeWidth=2;" vertex="1" parent="1">
          <mxGeometry x="555" y="350" width="20" height="20" as="geometry" />
        </mxCell>
        <mxCell id="TGWMUHkCGuM8DVwTMN4Y-18" value="" style="ellipse;whiteSpace=wrap;html=1;aspect=fixed;strokeWidth=2;" vertex="1" parent="1">
          <mxGeometry x="525" y="350" width="20" height="20" as="geometry" />
        </mxCell>
        <mxCell id="TGWMUHkCGuM8DVwTMN4Y-19" value="" style="ellipse;whiteSpace=wrap;html=1;aspect=fixed;strokeWidth=2;" vertex="1" parent="1">
          <mxGeometry x="495" y="350" width="20" height="20" as="geometry" />
        </mxCell>
        <mxCell id="TGWMUHkCGuM8DVwTMN4Y-20" value="" style="ellipse;whiteSpace=wrap;html=1;aspect=fixed;strokeWidth=2;" vertex="1" parent="1">
          <mxGeometry x="465" y="350" width="20" height="20" as="geometry" />
        </mxCell>
        <mxCell id="TGWMUHkCGuM8DVwTMN4Y-23" value="" style="endArrow=none;html=1;rounded=0;strokeWidth=4;" edge="1" parent="1" source="TGWMUHkCGuM8DVwTMN4Y-4">
          <mxGeometry width="50" height="50" relative="1" as="geometry">
            <mxPoint x="380" y="360" as="sourcePoint" />
            <mxPoint x="390" y="360" as="targetPoint" />
          </mxGeometry>
        </mxCell>
        <mxCell id="TGWMUHkCGuM8DVwTMN4Y-24" value="" style="endArrow=none;html=1;rounded=0;strokeWidth=4;" edge="1" parent="1" target="TGWMUHkCGuM8DVwTMN4Y-21">
          <mxGeometry width="50" height="50" relative="1" as="geometry">
            <mxPoint x="410" y="360" as="sourcePoint" />
            <mxPoint x="720" y="360" as="targetPoint" />
          </mxGeometry>
        </mxCell>
        <mxCell id="TGWMUHkCGuM8DVwTMN4Y-21" value="" style="ellipse;whiteSpace=wrap;html=1;aspect=fixed;strokeWidth=2;" vertex="1" parent="1">
          <mxGeometry x="435" y="350" width="20" height="20" as="geometry" />
        </mxCell>
        <mxCell id="TGWMUHkCGuM8DVwTMN4Y-25" value="" style="ellipse;whiteSpace=wrap;html=1;aspect=fixed;strokeWidth=2;" vertex="1" parent="1">
          <mxGeometry x="385" y="345" width="30" height="30" as="geometry" />
        </mxCell>
        <mxCell id="TGWMUHkCGuM8DVwTMN4Y-26" value="" style="endArrow=none;html=1;rounded=0;strokeWidth=4;" edge="1" parent="1" source="TGWMUHkCGuM8DVwTMN4Y-8" target="TGWMUHkCGuM8DVwTMN4Y-6">
          <mxGeometry width="50" height="50" relative="1" as="geometry">
            <mxPoint x="270" y="360" as="sourcePoint" />
            <mxPoint x="345" y="360" as="targetPoint" />
          </mxGeometry>
        </mxCell>
        <mxCell id="TGWMUHkCGuM8DVwTMN4Y-6" value="" style="ellipse;whiteSpace=wrap;html=1;aspect=fixed;strokeWidth=2;" vertex="1" parent="1">
          <mxGeometry x="315" y="350" width="20" height="20" as="geometry" />
        </mxCell>
        <mxCell id="TGWMUHkCGuM8DVwTMN4Y-7" value="" style="ellipse;whiteSpace=wrap;html=1;aspect=fixed;strokeWidth=2;" vertex="1" parent="1">
          <mxGeometry x="285" y="350" width="20" height="20" as="geometry" />
        </mxCell>
        <mxCell id="TGWMUHkCGuM8DVwTMN4Y-28" value="" style="endArrow=none;html=1;rounded=0;strokeWidth=4;" edge="1" parent="1" source="TGWMUHkCGuM8DVwTMN4Y-29" target="TGWMUHkCGuM8DVwTMN4Y-27">
          <mxGeometry width="50" height="50" relative="1" as="geometry">
            <mxPoint x="455" y="360" as="sourcePoint" />
            <mxPoint x="720" y="360" as="targetPoint" />
          </mxGeometry>
        </mxCell>
        <mxCell id="TGWMUHkCGuM8DVwTMN4Y-27" value="" style="ellipse;whiteSpace=wrap;html=1;aspect=fixed;strokeWidth=2;" vertex="1" parent="1">
          <mxGeometry x="710" y="345" width="30" height="30" as="geometry" />
        </mxCell>
        <mxCell id="TGWMUHkCGuM8DVwTMN4Y-29" value="" style="ellipse;whiteSpace=wrap;html=1;aspect=fixed;strokeWidth=2;" vertex="1" parent="1">
          <mxGeometry x="675" y="350" width="20" height="20" as="geometry" />
        </mxCell>
        <mxCell id="TGWMUHkCGuM8DVwTMN4Y-32" value="" style="endArrow=none;html=1;rounded=0;strokeWidth=4;" edge="1" parent="1" target="TGWMUHkCGuM8DVwTMN4Y-31">
          <mxGeometry width="50" height="50" relative="1" as="geometry">
            <mxPoint x="80" y="360" as="sourcePoint" />
            <mxPoint x="255" y="360" as="targetPoint" />
            <Array as="points" />
          </mxGeometry>
        </mxCell>
        <mxCell id="TGWMUHkCGuM8DVwTMN4Y-31" value="" style="ellipse;whiteSpace=wrap;html=1;aspect=fixed;strokeWidth=2;" vertex="1" parent="1">
          <mxGeometry x="60" y="345" width="30" height="30" as="geometry" />
        </mxCell>
        <mxCell id="TGWMUHkCGuM8DVwTMN4Y-34" value="" style="endArrow=none;html=1;rounded=0;strokeWidth=4;" edge="1" parent="1" source="TGWMUHkCGuM8DVwTMN4Y-31" target="TGWMUHkCGuM8DVwTMN4Y-33">
          <mxGeometry width="50" height="50" relative="1" as="geometry">
            <mxPoint x="80" y="360" as="sourcePoint" />
            <mxPoint x="255" y="360" as="targetPoint" />
            <Array as="points" />
          </mxGeometry>
        </mxCell>
        <mxCell id="TGWMUHkCGuM8DVwTMN4Y-33" value="" style="ellipse;whiteSpace=wrap;html=1;aspect=fixed;strokeWidth=2;" vertex="1" parent="1">
          <mxGeometry x="105" y="350" width="20" height="20" as="geometry" />
        </mxCell>
        <mxCell id="TGWMUHkCGuM8DVwTMN4Y-36" value="" style="shape=mxgraph.arrows2.wedgeArrow;html=1;bendable=0;startWidth=30;fillColor=strokeColor;defaultFillColor=invert;defaultGradientColor=invert;rounded=0;startSize=6;endSize=6;strokeColor=default;sourcePerimeterSpacing=0;" edge="1" parent="1">
          <mxGeometry width="100" height="100" relative="1" as="geometry">
            <mxPoint x="399.8" y="430" as="sourcePoint" />
            <mxPoint x="399.94" y="380" as="targetPoint" />
          </mxGeometry>
        </mxCell>
        <mxCell id="NXA7vldykdla3jjykRS2-2" value="&lt;font face=&quot;Pirata One&quot; data-font-src=&quot;https://fonts.googleapis.com/css?family=Pirata+One&quot;&gt;Wealth&lt;/font&gt;" style="text;html=1;align=center;verticalAlign=middle;whiteSpace=wrap;rounded=0;fontFamily=Manufacturing Consent;fontSource=https%3A%2F%2Ffonts.googleapis.com%2Fcss%3Ffamily%3DManufacturing%2BConsent;fontSize=42;" vertex="1" parent="1">
          <mxGeometry x="570" y="300" width="140" height="30" as="geometry" />
        </mxCell>
        <mxCell id="NXA7vldykdla3jjykRS2-3" value="&lt;font face=&quot;Pirata One&quot; data-font-src=&quot;https://fonts.googleapis.com/css?family=Pirata+One&quot;&gt;Might&lt;/font&gt;" style="text;html=1;align=center;verticalAlign=middle;whiteSpace=wrap;rounded=0;fontFamily=Manufacturing Consent;fontSource=https%3A%2F%2Ffonts.googleapis.com%2Fcss%3Ffamily%3DManufacturing%2BConsent;fontSize=42;" vertex="1" parent="1">
          <mxGeometry x="90" y="300" width="140" height="30" as="geometry" />
        </mxCell>
      </root>
    </mxGraphModel>
  </diagram>
</mxfile>
